<?xml version="1.0" encoding="UTF-8" standalone="no"?>
<svg
   xmlns:dc="http://purl.org/dc/elements/1.1/"
   xmlns:cc="http://creativecommons.org/ns#"
   xmlns:rdf="http://www.w3.org/1999/02/22-rdf-syntax-ns#"
   xmlns:svg="http://www.w3.org/2000/svg"
   xmlns="http://www.w3.org/2000/svg"
   xmlns:sodipodi="http://sodipodi.sourceforge.net/DTD/sodipodi-0.dtd"
   xmlns:inkscape="http://www.inkscape.org/namespaces/inkscape"
   width="601mm"
   height="601mm"
   viewBox="0 0 601 601"
   version="1.1"
   id="svg8"
   inkscape:version="1.0.1 (3bc2e813f5, 2020-09-07)"
   sodipodi:docname="22.svg">
  <defs
     id="defs2" />
  <sodipodi:namedview
     id="base"
     pagecolor="#ffffff"
     bordercolor="#666666"
     borderopacity="1.0"
     inkscape:pageopacity="0.0"
     inkscape:pageshadow="2"
     inkscape:zoom="0.24748737"
     inkscape:cx="1789.2174"
     inkscape:cy="857.20247"
     inkscape:document-units="mm"
     inkscape:current-layer="layer1"
     inkscape:document-rotation="0"
     showgrid="false"
     inkscape:window-width="1920"
     inkscape:window-height="1057"
     inkscape:window-x="-8"
     inkscape:window-y="-8"
     inkscape:window-maximized="1" />
  <metadata
     id="metadata5">
    <rdf:RDF>
      <cc:Work
         rdf:about="">
        <dc:format>image/svg+xml</dc:format>
        <dc:type
           rdf:resource="http://purl.org/dc/dcmitype/StillImage" />
        <dc:title></dc:title>
      </cc:Work>
    </rdf:RDF>
  </metadata>
  <g
     inkscape:label="Layer 1"
     inkscape:groupmode="layer"
     id="layer1"
     transform="translate(0,304)">
    <path
       d="m 296.90955,-304.13108 -15.78888,0.62234 -15.69531,1.41682 -15.66397,2.29073 -15.55539,3.17791 -15.41504,3.83114 -15.04119,4.84233 -14.91672,5.481 -14.52743,6.24369 -14.13814,7.1313 -13.76474,7.78543 -13.39089,8.53311 -12.86123,9.17089 -12.48784,9.94993 -11.709246,10.4478 -11.366741,11.08647 -10.697174,11.72469 -9.949485,12.23846 -9.420275,12.86168 -8.673029,13.26598 -8.01891,13.64026 -7.27166,14.13814 -6.49263,14.38752 -5.74582,14.79225 -4.82689,15.041188 -4.21954,15.30602 -3.31915,15.52406 -2.41432,15.55495 -1.77433,15.82022 L 1,-12.036332 V 3.7679981 l 0.76358,15.9287899 1.77433,15.67987 2.41432,15.66441 3.31915,15.43048 4.21954,15.29057 4.82689,15.18111 5.74582,14.776812 6.49263,14.38751 7.27166,14.01367 8.01891,13.78018 8.673029,13.25053 9.420275,12.75222 9.949485,12.22301 10.697174,11.72514 11.366741,11.08603 11.709246,10.58815 12.48784,9.80957 12.86124,9.29581 13.39088,8.4082 13.76474,7.90989 14.13814,7.00683 14.52743,6.36861 14.91672,5.481 15.04119,4.71786 15.41504,3.95472 15.55539,3.04991 15.66397,2.29074 15.69531,1.5404 15.78888,0.63999 15.9288,-0.26483 15.80433,-1.0284 15.67986,-1.89791 15.66397,-2.67915 15.43093,-3.56632 15.16566,-4.32989 15.02574,-5.10715 14.66779,-5.85485 14.40296,-6.75746 14.01367,-7.38068 13.51536,-8.17471 13.12606,-8.92196 12.73677,-9.56064 12.09854,-10.18297 11.49121,-10.83753 11.08647,-11.35085 10.30788,-11.97407 9.6851,-12.61231 9.04643,-13.00159 8.29918,-13.375 7.64507,-13.8892 6.86692,-14.2785 6.11923,-14.6519 5.35653,-14.916722 4.59339,-15.1661 3.6899,-15.41504 2.94397,-15.55495 2.02592,-15.80433 1.27557,-15.78888 L 601,-4.1436619 l -0.39724,-15.7888801 -1.27557,-15.80433 -2.02592,-15.67942 -2.94397,-15.55539 -3.6899,-15.41504 -4.59339,-15.1661 -5.35653,-14.900828 -6.11923,-14.66779 -6.86692,-14.2785 -7.64507,-13.8892 -8.29918,-13.49946 -9.04643,-12.98615 -9.6851,-12.51873 -10.30788,-11.95863 -11.08647,-11.47532 -11.49121,-10.82164 -12.09854,-10.21475 -12.73677,-9.54474 -13.12606,-8.78205 -13.51536,-8.17427 -14.01367,-7.52104 -14.40296,-6.63299 -14.66779,-5.97931 -15.02574,-5.10716 -15.16566,-4.31224 -15.43093,-3.57955 -15.66397,-2.66149 -15.67986,-1.79199 -15.80433,-1.15199 z"
       style="fill:#de0029;fill-opacity:1;fill-rule:nonzero;stroke:none;stroke-width:15.5707"
       id="path705" />
    <path
       d="m 490.62216,143.06078 -336.82638,-336.82638 4.57795,-3.45597 4.73331,-3.42507 4.84277,-3.31473 4.82688,-3.19114 4.9668,-3.04991 5.10715,-2.94397 5.09171,-2.80274 5.23206,-2.67914 5.23163,-2.53791 5.21617,-2.41433 5.35653,-2.29074 5.48056,-2.18039 5.481,-2.03915 5.481,-1.91557 5.60547,-1.77433 5.60547,-1.66399 5.60546,-1.38592 5.60547,-1.41681 5.74539,-1.26234 5.73037,-1.0284 5.72994,-0.90482 5.87029,-0.87392 5.72994,-0.65324 5.8544,-0.51199 5.72994,-0.3531 5.87029,-0.26483 5.87029,-0.13241 5.85441,0.13241 5.74582,0.13241 5.87029,0.3531 5.85441,0.512 5.72993,0.51641 5.72994,0.76358 5.85484,0.88716 5.74539,1.02841 5.73037,1.26233 5.62092,1.29323 5.60547,1.38592 5.60547,1.66398 5.60546,1.65075 5.60547,1.91557 5.481,1.91557 5.35609,2.16274 5.34064,2.29073 5.35654,2.29074 5.23162,2.55557 5.21617,2.67915 5.23207,2.80273 4.98269,2.80273 5.07581,3.06756 4.84277,3.05432 4.84233,3.31473 4.73331,3.31473 4.70242,3.56631 4.59339,3.56632 4.59339,3.70755 4.3299,3.81348 4.32989,3.95473 4.20189,3.95472 4.20631,4.06507 3.95473,4.34313 3.95472,4.2019 3.81348,4.45303 3.70756,4.46893 3.56631,4.70241 3.42507,4.5934 3.45597,4.84233 3.19115,4.84277 3.1779,4.84233 2.92632,4.96724 2.94397,5.10715 2.80274,5.09171 2.67915,5.23162 2.41432,5.35609 2.41432,5.216178 2.30398,5.481 2.02592,5.35653 2.0568,5.481 1.79199,5.60546 1.77433,5.48056 1.52716,5.60547 1.52716,5.73038 1.27557,5.62091 1.13875,5.72994 1.04165,5.72994 0.88716,5.74582 0.74592,5.8544 0.65324,5.72994 0.512,5.85484 0.26482,5.8703 0.26483,5.7299301 v 5.8703 l -0.13242,5.86985 -0.13241,5.85484 -0.39724,5.7299399 -0.51199,5.87029 -0.76358,5.72994 -0.74593,5.8544 -0.90482,5.74583 -1.15199,5.72993 -1.13874,5.60547 -1.41682,5.74582 -1.52716,5.60547 -1.65074,5.60547 -1.6684,5.60547 -1.89792,5.48056 -2.03915,5.481 -2.16274,5.35653 -2.30398,5.34064 -2.41432,5.35609 -2.53791,5.232062 -2.69239,5.21618 -2.80274,5.10715 -2.92631,4.96724 -3.06756,4.9668 -3.19115,4.96724 -3.30149,4.84233 -3.42507,4.73375 z"
       style="fill:#ffffff;fill-opacity:1;fill-rule:evenodd;stroke:none;stroke-width:15.5707"
       id="path709" />
    <path
       d="m 111.35621,-151.33353 -3.56631,4.71786 -3.44273,4.71786 -3.30149,4.84277 -3.067557,4.84233 -3.067559,4.96724 -2.926319,5.09127 -2.802734,5.10715 -2.679149,5.1076 -2.555563,5.21617 -2.537909,5.35609 -2.303979,5.340648 -2.16274,5.481 -2.039154,5.35653 -1.77433,5.60547 -1.791984,5.481 -1.668399,5.60546 -1.509504,5.60547 -1.275575,5.74539 -1.275575,5.72993 -1.151989,5.74583 -0.887165,5.72993 -0.76358,5.72994 -0.639994,5.85484 -0.511995,5.72994 -0.397238,5.87029 -0.264825,5.8544 -0.132413,5.7458301 v 5.85440004 l 0.264825,5.87029996 0.264825,5.8698499 0.511996,5.73037 0.653235,5.85441 0.745925,5.72993 0.887165,5.74583 1.041646,5.72993 1.138748,5.72994 1.275575,5.74583 1.527159,5.60546 1.5404,5.60547 1.774329,5.60547 1.774329,5.481 2.05681,5.48056 2.162739,5.481 2.149499,5.35653 2.427564,5.34064 2.555564,5.216182 2.537909,5.24751 2.802734,5.09126 2.943974,5.1076 2.926319,4.9668 3.177903,4.96724 3.191147,4.84233 3.44273,4.71786 3.44272,4.7183 3.56632,4.57751 3.70755,4.46892 3.81348,4.45304 3.95473,4.32989 4.07831,4.21955 4.07831,4.06507 4.20189,4.07831 4.32989,3.95472 4.45304,3.83114 4.46892,3.6899 4.5934,3.56631 4.70241,3.44273 4.73331,3.44273 4.84277,3.19114 4.9668,3.19115 4.95179,2.92631 5.10716,2.92632 5.10715,2.80274 5.21618,2.55556 5.23162,2.55556 5.35653,2.41433 5.35609,2.16274 5.46555,2.16274 5.481,2.03915 5.481,1.77433 5.60547,1.79199 5.60547,1.5404 5.62091,1.52715 5.72994,1.27558 5.60547,1.13433 5.72993,1.02841 5.8703,0.88716 5.72993,0.76358 5.85485,0.64 5.74538,0.51199 5.85485,0.26483 5.86985,0.26482 h 5.72993 l 5.8703,-0.13241 5.87029,-0.26482 5.8544,-0.39724 5.73038,-0.512 5.8544,-0.63999 5.72994,-0.74593 5.74582,-0.88716 5.72994,-1.16965 5.74538,-1.26233 5.60547,-1.27557 5.60547,-1.52716 5.60547,-1.66399 5.60546,-1.79198 5.481,-1.89792 5.481,-1.91557 5.481,-2.18039 5.35609,-2.41432 5.21618,-2.41433 5.23206,-2.53791 5.23163,-2.67915 5.0917,-2.82038 5.10716,-2.92632 4.96724,-3.06756 4.82688,-3.19115 4.84233,-3.1779 4.73375,-3.42507 4.70197,-3.57956 z"
       style="fill:#ffffff;fill-opacity:1;fill-rule:evenodd;stroke:none;stroke-width:15.5707"
       id="path717" />
    <path
       d="m 158.51055,-104.17919 v 0 H 136.85182 V 145.98048 H 387.01149 V 124.3213 L 358.46995,95.904668 H 186.92719 v -171.66723 z"
       style="fill:#000000;fill-opacity:1;fill-rule:evenodd;stroke:none;stroke-width:15.5707"
       id="path725" />
    <path
       d="m 233.45125,-29.112712 h -9.18679 v 15.04164 h 24.22798 z"
       style="fill:#000000;fill-opacity:1;fill-rule:nonzero;stroke:none;stroke-width:15.5707"
       id="path733" />
    <path
       d="m 299.2078,-124.18894 h -29.94247 v -14.91717 h 29.94247 v -15.02574 h -29.94247 v -15.04119 h 29.94247 v -15.04119 h -44.9841 v 90.107668 h -0.88717 l 15.02574,15.04163 h 180.97849 v 24.97523 h 14.90127 v -40.01686 h -29.94246 v -90.107668 h -44.99955 v 15.04119 h 29.95836 v 15.04119 h -29.95836 v 15.02574 h 29.95836 v 14.91717 h -29.95836 v 15.04119 h 29.95836 v 15.041188 H 269.26533 v -15.041188 h 29.94247 z"
       style="fill:#000000;fill-opacity:1;fill-rule:evenodd;stroke:none;stroke-width:15.5707"
       id="path741" />
    <path
       d="m 283.40214,-64.161002 h 125.92043 l 4.96724,15.04163 -55.05849,19.99254 h 105.00939 v 15.05708 H 354.24907 V 6.8262881 l -15.02574,-15.04119 v -5.8548501 h -5.85484 l -15.05708,-15.05708 h 10.962 l 55.05805,-19.99254 h -86.01259 z"
       style="fill:#000000;fill-opacity:1;fill-rule:evenodd;stroke:none;stroke-width:15.5707"
       id="path749" />
    <path
       d="m 369.29777,-144.19605 -24.97523,13.63983 -25.11558,-13.63983 -4.95135,10.05895 18.34224,9.94948 -18.34224,10.05851 4.95135,9.94992 25.11558,-13.63982 24.97523,13.63982 4.96724,-9.94992 -18.34224,-10.05851 18.34224,-9.94948 z"
       style="fill:#000000;fill-opacity:1;fill-rule:evenodd;stroke:none;stroke-width:15.5707"
       id="path757" />
    <path
       d="m 369.29777,-154.13803 -24.97523,-13.63982 -25.11558,13.63982 -4.95135,-10.0585 18.34224,-9.94993 -18.34224,-10.0585 4.95135,-9.94993 25.11558,13.64027 24.97523,-13.64027 4.96724,9.94993 -18.34224,10.0585 18.34224,9.94993 z"
       style="fill:#000000;fill-opacity:1;fill-rule:evenodd;stroke:none;stroke-width:15.5707"
       id="path765" />
  </g>
</svg>
